<svg width="24" height="24" viewBox="0 0 24 24" fill="none" xmlns="http://www.w3.org/2000/svg">
<g clip-path="url(#clip0_18332_11254)">
<path d="M24 12C24 18.6274 18.6274 24 12 24C5.37258 24 0 18.6274 0 12C0 5.37258 5.37258 0 12 0C18.6274 0 24 5.37258 24 12Z" fill="black"/>
<path d="M14.0241 9.66683H9.97969C9.80788 9.66683 9.66856 9.80609 9.66856 9.9779V14.0224C9.66856 14.1942 9.80788 14.3335 9.97969 14.3335H14.0241C14.1959 14.3335 14.3352 14.1942 14.3352 14.0224V9.9779C14.3352 9.80609 14.1959 9.66683 14.0241 9.66683Z" fill="white"/>
<path d="M9.35555 5H5.31114C5.13932 5 5 5.13925 5 5.31113V9.35557C5 9.52739 5.13932 9.66671 5.31114 9.66671H9.35555C9.52743 9.66671 9.66669 9.52739 9.66669 9.35557V5.31113C9.66669 5.13925 9.52743 5 9.35555 5Z" fill="white"/>
<path d="M18.6889 5H14.6444C14.4726 5 14.3333 5.13925 14.3333 5.31113V9.35557C14.3333 9.52739 14.4726 9.66671 14.6444 9.66671H18.6889C18.8607 9.66671 19 9.52739 19 9.35557V5.31113C19 5.13925 18.8607 5 18.6889 5Z" fill="white"/>
<path d="M9.35555 14.3333H5.31114C5.13932 14.3333 5 14.4725 5 14.6444V18.6889C5 18.8607 5.13932 19 5.31114 19H9.35555C9.52743 19 9.66669 18.8607 9.66669 18.6889V14.6444C9.66669 14.4725 9.52743 14.3333 9.35555 14.3333Z" fill="white"/>
<path d="M18.6889 14.3333H14.6444C14.4726 14.3333 14.3333 14.4725 14.3333 14.6444V18.6889C14.3333 18.8607 14.4726 19 14.6444 19H18.6889C18.8607 19 19 18.8607 19 18.6889V14.6444C19 14.4725 18.8607 14.3333 18.6889 14.3333Z" fill="white"/>
</g>
<defs>
<clipPath id="clip0_18332_11254">
<rect width="24" height="24" fill="white"/>
</clipPath>
</defs>
</svg>
